<svg id="Capa_1" data-name="Capa 1" xmlns="http://www.w3.org/2000/svg" viewBox="0 0 612 430.12"><defs><style>.cls-1,.cls-3{fill:#fff;}.cls-2,.cls-3{font-size:38.06px;font-family:ErasITC-Bold, Eras Bold ITC;font-weight:700;}.cls-2{fill:#29abe2;}</style></defs><title>Stayawake</title><path d="M39.47,302.52V42.14a26.2,26.2,0,0,1,26.2-26.2H325.92a26.2,26.2,0,0,1,26.2,26.2V302.52a8.73,8.73,0,0,1-8.73,8.73H48.21a8.73,8.73,0,0,1-8.73-8.73ZM249.61,390a54.34,54.34,0,1,1-52.53-52.54A54.34,54.34,0,0,1,249.61,390Zm-27.23,4A27.17,27.17,0,1,0,197.5,418.8,27.18,27.18,0,0,0,222.38,393.93ZM148.5,337.38H26.74A8.74,8.74,0,0,0,18,346.12v26.49a8.73,8.73,0,0,0,8.74,8.73h97.59a71.72,71.72,0,0,1,24.17-44Zm385.44,54.34a54.34,54.34,0,1,1-54.34-54.34A54.34,54.34,0,0,1,533.94,391.72Zm-27.26,2.21A27.17,27.17,0,1,0,481.8,418.8,27.18,27.18,0,0,0,506.68,393.93ZM630,346.12v26.49a8.73,8.73,0,0,1-8.74,8.73h-70.7a71.71,71.71,0,0,0-141.93,0H266.26a71.71,71.71,0,0,0-24.16-44h135V87.59a17.46,17.46,0,0,1,17.46-17.46H477a69.86,69.86,0,0,1,57.9,30.77l53.15,78.72a69.89,69.89,0,0,1,12,39.09V337.38h21.25a8.73,8.73,0,0,1,8.74,8.73ZM541.41,181.64l-42.51-60.4a8.73,8.73,0,0,0-7.14-3.7H425.47a8.73,8.73,0,0,0-8.74,8.73v60.39a8.73,8.73,0,0,0,8.74,8.73h108.8a8.73,8.73,0,0,0,7.14-13.75Z" transform="translate(-18 -15.94)"/><path class="cls-1" d="M83,100C209.4,244,309,100,309,100,199-45.49,83,100,83,100Zm114.11,53.08c-27.65,0-50.07-23.86-50.07-53.29s22.42-53.28,50.07-53.28,50.08,23.86,50.08,53.28S224.8,153.11,197.14,153.11Z" transform="translate(-18 -15.94)"/><ellipse class="cls-1" cx="179.58" cy="84.28" rx="28" ry="30.04"/><text class="cls-2" transform="translate(96.4 207.83) scale(1.77 1)">STAY<tspan x="-28.4" y="45.67">AWAKE</tspan></text><text class="cls-3" transform="translate(88.98 205.87) scale(1.77 1)">STAY<tspan x="-28.4" y="45.67">AWAKE</tspan></text><path d="M477.6,163.94c10.44.8,19.5-6.57,20.34-16.47S491,129,480.54,128.14s-19.46,6.64-20.24,16.53,6.88,18.5,17.3,19.27" transform="translate(-18 -15.94)"/><path d="M461.84,176.15A18.15,18.15,0,0,1,473.3,173a17.67,17.67,0,0,1,12.94,7.58L502.68,211l22.43,14.42a6.6,6.6,0,0,1,2.86,6,7.14,7.14,0,0,1-7.87,6.24,9.53,9.53,0,0,1-3.37-1l-24.46-15.71a8.5,8.5,0,0,1-1.87-2l-6.12-11.39-7.4,30.31,28.91,31.85a9.52,9.52,0,0,1,1.36,3.29L515,311.43c-.07.86.06,1.39,0,2.07-.45,5.74-5.78,9.89-11.84,9.47a11.06,11.06,0,0,1-9.93-8.14l-7.36-36-23.51-24-5.43,23.36c-.19,1.09-1.74,3.4-2.18,4.32L432.15,318a11.36,11.36,0,0,1-10.28,5c-6.13-.41-10.66-5.39-10.16-11.07a12,12,0,0,1,1.49-4.44l20.95-32.77,17.48-72.22-11.42,8.61-6.06,25.72a7.62,7.62,0,0,1-7.81,5.74,7,7,0,0,1-6.76-7.4,5.85,5.85,0,0,1,.13-.94l7.17-30a7.27,7.27,0,0,1,2.25-3.31l32.71-24.72Z" transform="translate(-18 -15.94)"/></svg>