<?xml version="1.0" encoding="utf-8"?>
<!-- Generator: Adobe Illustrator 24.0.0, SVG Export Plug-In . SVG Version: 6.00 Build 0)  -->
<svg version="1.1" id="Capa_1" xmlns="http://www.w3.org/2000/svg" xmlns:xlink="http://www.w3.org/1999/xlink" x="0px" y="0px"
	 viewBox="0 0 650 461" enable-background="new 0 0 650 461" xml:space="preserve">
<path stroke="#FFFFFF" stroke-width="5" stroke-miterlimit="10" d="M461.845,176.151c29.54-16.066,30.895,34.102,47.932,39.401
	c25.394,12.069,20.267,24.337,6.957,21.106c-9.364-5.844-29.819-16.973-32.458-29.13l-7.393,30.311
	c9.897,11.958,32.917,32.454,31.305,40.245c7.953,25.988,10.155,59.335-14.208,38.816c-1.675-1.845-7.422-36.531-8.15-38.093
	L462.32,254.83c-1.195,18.339-33.021,87.211-49.231,62.933c-8.076-8.097,23.558-42.493,21.24-43.865
	c1.88-7.76,17.263-71.312,17.299-71.463l-11.422,8.614c-1.636,10.26-9.481,48.278-20.627,24.065
	c1.28-4.902,6.11-28.721,8.188-32.734c1.067-2.504,32.381-24.353,34.077-26.231L461.845,176.151z"/>
<path stroke="#FFFFFF" stroke-width="10" stroke-miterlimit="10" d="M39.474,302.52V42.139c0-14.469,11.73-26.199,26.199-26.199
	h260.25c14.469,0,26.198,11.729,26.198,26.198V302.52c0,4.823-3.91,8.733-8.733,8.733H48.209c-4.824,0-8.733-3.91-8.733-8.734
	L39.474,302.52z M249.606,389.946c-1.839,74.729-104.284,72.871-108.619,3.547C142.831,318.77,245.266,320.628,249.606,389.946z
	 M222.377,393.927c0.663-37.938-50.613-38.131-54.165-4.41C167.55,427.455,218.826,427.649,222.377,393.927z M148.495,337.383
	c-24.143,2.432-133.762-6.372-130.181,6.409c-6.119,57.46,6.825,32.422,106.019,37.552c2.548-17.484,11.373-32.928,24.164-43.961
	H148.495z M533.935,391.721c-4.082,74.302-106.718,69.837-108.675-0.262C429.225,316.833,532.247,322.461,533.935,391.721z
	 M506.68,393.926c0.662-37.937-50.614-38.131-54.165-4.409C451.853,427.456,503.129,427.648,506.68,393.926z M629.997,346.116
	c-0.43,17.61,3.44,36.33-10.039,35.227c-9.688,0.001-69.225,0.001-69.398,0.001c-15.694-84.102-128.896-79.055-141.93,0h-142.37
	c-2.549-17.483-11.373-32.928-24.164-43.961h134.99c0.107-5.149-0.271-246.731,0.159-252.157c5.261-25.215,36.018-12,72.669-15.102
	c55.464-2.867,72.221,10.288,91.259,40.069c26.169,40.477,54.343,74.568,57.267,93.793c3.37,7.494,0.867,123.37,1.569,133.396
	c7.994,1.156,29.449-4.617,29.986,8.733L629.997,346.116z M541.406,181.635c-56.901-77.786-31.744-62.59-80.265-64.1
	c-29.505,0.915-44.334-4.455-44.407,10.244c1.69,22.013-5.988,71.594,9.284,67.614c89.895-1.731,125.522,7.24,115.389-13.758
	H541.406z"/>
<g>
	<path fill="#29ABE2" d="M104.285,223.377c-0.284-2.639-0.612-4.751-0.984-6.337c2.455,0.62,4.642,1.05,6.56,1.292
		c1.917,0.242,3.6,0.362,5.047,0.362c1.906,0,3.424-0.158,4.553-0.474s1.693-0.784,1.693-1.403c0-0.21-0.055-0.412-0.164-0.604
		c-0.11-0.192-0.318-0.409-0.625-0.65s-0.745-0.504-1.315-0.79l-6.183-3.048c-1.447-0.694-2.455-1.196-3.025-1.505
		c-1.162-0.632-2.066-1.22-2.713-1.766c-0.647-0.545-1.118-1.099-1.414-1.663s-0.443-1.162-0.443-1.793
		c0-0.756,0.234-1.496,0.705-2.221c0.471-0.725,1.176-1.403,2.117-2.035c0.94-0.632,2.188-1.177,3.741-1.635
		c1.553-0.458,3.216-0.771,4.987-0.938c1.772-0.167,3.599-0.251,5.48-0.251c3.697,0,7.723,0.242,12.077,0.725
		c0.065,0.855,0.142,1.639,0.229,2.351c0.087,0.712,0.296,1.96,0.624,3.745c-2.014-0.458-3.852-0.777-5.514-0.957
		c-1.663-0.18-3.096-0.27-4.299-0.27c-1.707,0-3.123,0.18-4.25,0.539s-1.69,0.805-1.69,1.338c0,0.248,0.088,0.49,0.263,0.725
		c0.175,0.236,0.503,0.511,0.984,0.827s1.116,0.663,1.903,1.041c0.788,0.378,2.023,0.938,3.709,1.682l2.362,1.06
		c0.7,0.322,1.455,0.712,2.265,1.17c0.81,0.458,1.51,0.911,2.101,1.357c0.591,0.446,1.044,0.855,1.361,1.227
		s0.553,0.747,0.706,1.124c0.152,0.378,0.229,0.784,0.229,1.217c0,1.115-0.471,2.178-1.411,3.188s-2.275,1.84-4.004,2.49
		s-3.626,1.105-5.693,1.366s-4.25,0.391-6.547,0.391C114.163,224.251,109.689,223.959,104.285,223.377z"/>
	<path fill="#29ABE2" d="M151.805,223.768c1.087-6.021,1.739-12.649,1.956-19.885l-13.967,0.205l0.164-2.063
		c0.087-1.103,0.152-2.311,0.196-3.624c6.212,0.025,13.451,0.038,21.719,0.038l8.104-0.019h7.874l4.265-0.019l-0.197,1.821
		c-0.087,0.976-0.147,1.783-0.18,2.421c-0.033,0.638-0.05,1.12-0.05,1.445c-4.678-0.136-8.536-0.205-11.574-0.205h-2.295
		c-0.33,2.189-0.583,4.211-0.76,6.066c-0.242,2.659-0.43,5.24-0.562,7.744c-0.133,2.504-0.198,4.529-0.198,6.075
		c-3.586-0.025-5.903-0.037-6.952-0.037C158.407,223.73,155.893,223.743,151.805,223.768z"/>
	<path fill="#29ABE2" d="M178.616,223.768l2.726-2.676l16.975-18.101l1.807-2.025c0.524-0.595,1.258-1.45,2.199-2.565
		c3.85,0.025,6.661,0.037,8.433,0.037c3.085,0,5.939-0.012,8.564-0.037l4.788,7.75l9.741,14.904l1.902,2.713
		c-3.79-0.025-6.089-0.037-6.899-0.037c-1.84,0-4.544,0.012-8.114,0.037c-0.961-2.044-2.348-4.448-4.16-7.21h-16.521
		c-1.901,2.181-3.869,4.584-5.901,7.21c-4.074-0.025-6.571-0.037-7.49-0.037C185,223.73,182.317,223.743,178.616,223.768z
		 M204.024,211.149h10.193c-2.534-4.366-3.921-6.771-4.161-7.217c-1.442,1.818-2.667,3.309-3.672,4.471L204.024,211.149z"/>
	<path fill="#29ABE2" d="M248.681,223.768c0.219-1.003,0.48-2.707,0.787-5.111c0.307-2.403,0.46-4.101,0.46-5.092l-15.03-15.165
		c3.301,0.025,6.022,0.037,8.165,0.037c2.055,0,4.514-0.012,7.378-0.037c0.875,1.239,2.062,2.716,3.56,4.431
		s2.718,3.248,3.658,4.598c2.515-2.514,4.537-4.474,6.068-5.88c1.53-1.406,2.624-2.456,3.28-3.149
		c2.782,0.025,5.454,0.037,8.018,0.037c1.357,0,3.821-0.012,7.392-0.037l-14.406,12.024c-2.866,2.403-4.299,3.661-4.299,3.772
		l-0.033,0.186v0.186l-0.032,0.186l-0.229,2.825c-0.153,1.871-0.272,3.934-0.36,6.188c-3.085-0.025-5.47-0.037-7.154-0.037
		C254.172,223.73,251.766,223.743,248.681,223.768z"/>
	<path fill="#29ABE2" d="M48.661,269.44l2.726-2.676l16.975-18.102l1.807-2.025c0.524-0.595,1.258-1.449,2.199-2.564
		c3.85,0.024,6.661,0.037,8.433,0.037c3.085,0,5.939-0.013,8.564-0.037l4.788,7.749l9.741,14.905l1.902,2.713
		c-3.79-0.024-6.089-0.037-6.899-0.037c-1.84,0-4.544,0.013-8.114,0.037c-0.961-2.044-2.348-4.447-4.16-7.211H70.102
		c-1.901,2.181-3.869,4.584-5.901,7.211c-4.074-0.024-6.571-0.037-7.49-0.037C55.045,269.403,52.362,269.416,48.661,269.44z
		 M74.069,256.821h10.193c-2.534-4.365-3.921-6.771-4.161-7.217c-1.442,1.818-2.667,3.309-3.672,4.472L74.069,256.821z"/>
	<path fill="#29ABE2" d="M118.077,269.44l-1.116-3.42c-0.264-0.805-0.669-1.933-1.216-3.382l-5.354-13.883l-1.938-4.683
		c2.759,0.024,4.992,0.037,6.7,0.037c1.927,0,4.16-0.013,6.7-0.037c0.591,2.02,1.062,3.5,1.412,4.441l2.759,7.489
		c0.569,1.611,1.204,3.574,1.905,5.892l1.08-2.603l3.897-8.586l2.686-6.634c2.997,0.024,5.534,0.037,7.613,0.037
		c2.253,0,4.78-0.013,7.581-0.037l2.074,7.823l2.864,9.962l1.279-2.732c0.24-0.471,0.491-0.947,0.754-1.431s0.81-1.443,1.64-2.881
		l4.001-7.136l1.869-3.605c2.646,0.012,4.831,0.019,6.559,0.019c1.945,0,4.121-0.007,6.525-0.019l-12.724,21.595l-2.033,3.772
		c-3.282-0.024-6.148-0.037-8.599-0.037c-2.582,0-5.438,0.013-8.566,0.037l-0.754-2.546l-2.883-8.865
		c-0.152-0.532-0.289-1.08-0.409-1.645c-0.12-0.563-0.289-1.44-0.508-2.63l-1.149,2.881c-0.285,0.645-0.58,1.295-0.887,1.951
		l-5.287,10.854c-3.304-0.024-6.05-0.037-8.238-0.037C123.997,269.403,121.25,269.416,118.077,269.44z"/>
	<path fill="#29ABE2" d="M176.385,269.44l2.726-2.676l16.975-18.102l1.807-2.025c0.524-0.595,1.258-1.449,2.199-2.564
		c3.85,0.024,6.661,0.037,8.433,0.037c3.085,0,5.939-0.013,8.564-0.037l4.788,7.749l9.741,14.905l1.902,2.713
		c-3.79-0.024-6.089-0.037-6.899-0.037c-1.84,0-4.544,0.013-8.114,0.037c-0.961-2.044-2.348-4.447-4.16-7.211h-16.521
		c-1.901,2.181-3.869,4.584-5.901,7.211c-4.074-0.024-6.571-0.037-7.49-0.037C182.769,269.403,180.086,269.416,176.385,269.44z
		 M201.793,256.821h10.193c-2.534-4.365-3.921-6.771-4.161-7.217c-1.442,1.818-2.667,3.309-3.672,4.472L201.793,256.821z"/>
	<path fill="#29ABE2" d="M236.933,269.44c0.418-2.316,0.715-4.237,0.891-5.761c0.33-2.701,0.683-6.399,1.057-11.095
		c0.264-3.271,0.396-5.576,0.396-6.914v-1.598c3.65,0.024,6.164,0.037,7.541,0.037c0.918,0,3.278-0.013,7.082-0.037l-1.551,13.882
		l-0.792,11.485l-7.115-0.037C243.435,269.403,240.932,269.416,236.933,269.44z M253.374,256.051l7.351-5.664l5.939-4.717
		l1.838-1.597c4.069,0.024,6.826,0.037,8.271,0.037c0.394,0,3.008-0.013,7.843-0.037l-13.849,9.897l-2.593,1.987l2.429,2.194
		l13.718,11.288l-8.073-0.037c-1.751,0-4.715,0.013-8.894,0.037C264.531,266.428,259.871,261.964,253.374,256.051z"/>
	<path fill="#29ABE2" d="M288.356,269.44c0.548-3.196,0.948-5.873,1.201-8.028c0.252-2.156,0.504-5.021,0.757-8.596
		c0.252-3.574,0.378-5.943,0.378-7.108l-0.032-1.635c5.162,0.024,11.406,0.037,18.735,0.037c6.759,0,12.72-0.013,17.882-0.037
		l-0.065,0.611c-0.022,0.147-0.077,0.685-0.164,1.611l-0.197,2.019c-0.044,0.433-0.065,0.871-0.065,1.315
		c-4.223-0.1-7.767-0.149-10.633-0.149c-3.15,0-5.278,0.004-6.383,0.01c-1.104,0.007-2.828,0.034-5.169,0.084l-0.398,4.274
		c2.583,0.037,5.592,0.056,9.027,0.056c1.226,0,4.486-0.044,9.782-0.131c-0.22,1.587-0.427,3.476-0.623,5.669
		c-3.783-0.025-6.691-0.037-8.725-0.037c-3.018,0-6.396,0.043-10.135,0.13l-0.391,4.516h3.771c1.115,0,3.422-0.019,6.92-0.056
		l6.789-0.093c1.006-0.013,2.689-0.062,5.051-0.148c-0.263,1.833-0.482,3.729-0.657,5.687c-5.338-0.024-11.19-0.037-17.557-0.037
		l-14.439,0.019L288.356,269.44z"/>
</g>
<g>
	<path fill="#29ABE2" d="M77.017,102.291c126.362,143.935,225.966,0,225.966,0C192.973-43.225,77.017,102.291,77.017,102.291z
		 M191.127,155.367c-68.66-4.06-64.067-104.709,0-106.561C259.787,52.866,255.194,153.515,191.127,155.367z"/>
	<path fill="#29ABE2" d="M191.562,72.448c-38.803,2.498-35.157,59.242,0,60.075C230.365,130.025,226.719,73.281,191.562,72.448z"/>
</g>
<g>
	<path fill="#FFFFFF" d="M109.875,221.422c-0.284-2.639-0.613-4.751-0.984-6.337c2.455,0.62,4.641,1.05,6.559,1.292
		c1.917,0.242,3.6,0.362,5.047,0.362c1.907,0,3.424-0.158,4.553-0.474s1.693-0.784,1.693-1.403c0-0.21-0.055-0.412-0.165-0.604
		c-0.11-0.192-0.318-0.409-0.625-0.65c-0.307-0.242-0.746-0.504-1.315-0.79l-6.183-3.048c-1.447-0.694-2.456-1.196-3.025-1.505
		c-1.162-0.632-2.066-1.22-2.713-1.766c-0.647-0.545-1.118-1.099-1.414-1.663s-0.443-1.162-0.443-1.793
		c0-0.756,0.235-1.496,0.706-2.221c0.47-0.725,1.176-1.403,2.117-2.035c0.94-0.632,2.188-1.177,3.741-1.635
		c1.553-0.458,3.216-0.771,4.988-0.938c1.772-0.167,3.599-0.251,5.48-0.251c3.697,0,7.723,0.242,12.077,0.725
		c0.066,0.855,0.142,1.639,0.23,2.351c0.087,0.712,0.295,1.96,0.624,3.745c-2.013-0.458-3.851-0.777-5.513-0.957
		c-1.663-0.18-3.096-0.27-4.299-0.27c-1.707,0-3.123,0.18-4.25,0.539c-1.127,0.359-1.69,0.805-1.69,1.338
		c0,0.248,0.087,0.49,0.263,0.725c0.175,0.236,0.503,0.511,0.984,0.827c0.481,0.316,1.116,0.663,1.903,1.041
		s2.023,0.938,3.708,1.682l2.363,1.06c0.7,0.322,1.455,0.712,2.264,1.17c0.81,0.458,1.51,0.911,2.101,1.357
		c0.591,0.446,1.044,0.855,1.362,1.227c0.317,0.372,0.552,0.747,0.706,1.124c0.153,0.378,0.23,0.784,0.23,1.217
		c0,1.115-0.471,2.178-1.411,3.188c-0.941,1.01-2.276,1.84-4.004,2.49c-1.729,0.65-3.626,1.105-5.694,1.366s-4.25,0.391-6.547,0.391
		C119.753,222.296,115.279,222.004,109.875,221.422z"/>
	<path fill="#FFFFFF" d="M157.395,221.813c1.086-6.021,1.739-12.649,1.956-19.885l-13.967,0.205l0.164-2.063
		c0.087-1.103,0.153-2.311,0.197-3.624c6.211,0.025,13.451,0.038,21.718,0.038l8.104-0.019h7.874l4.265-0.019l-0.197,1.821
		c-0.087,0.976-0.147,1.783-0.18,2.421c-0.033,0.638-0.049,1.12-0.049,1.445c-4.678-0.136-8.536-0.205-11.574-0.205h-2.295
		c-0.331,2.189-0.583,4.211-0.76,6.066c-0.242,2.659-0.43,5.24-0.562,7.744c-0.132,2.504-0.198,4.529-0.198,6.075
		c-3.586-0.025-5.903-0.037-6.953-0.037C163.997,221.775,161.482,221.788,157.395,221.813z"/>
	<path fill="#FFFFFF" d="M184.206,221.813l2.726-2.676l16.975-18.101l1.806-2.025c0.525-0.595,1.258-1.45,2.2-2.565
		c3.85,0.025,6.661,0.037,8.433,0.037c3.084,0,5.939-0.012,8.564-0.037l4.788,7.75l9.741,14.904l1.902,2.713
		c-3.79-0.025-6.089-0.037-6.899-0.037c-1.84,0-4.544,0.012-8.114,0.037c-0.961-2.044-2.348-4.448-4.161-7.21h-16.52
		c-1.902,2.181-3.869,4.584-5.902,7.21c-4.074-0.025-6.571-0.037-7.49-0.037C190.59,221.775,187.907,221.788,184.206,221.813z
		 M209.614,209.194h10.193c-2.534-4.366-3.92-6.771-4.161-7.217c-1.443,1.818-2.667,3.309-3.672,4.471L209.614,209.194z"/>
	<path fill="#FFFFFF" d="M254.27,221.813c0.219-1.003,0.481-2.707,0.788-5.111c0.306-2.403,0.459-4.101,0.459-5.092l-15.03-15.165
		c3.3,0.025,6.022,0.037,8.165,0.037c2.055,0,4.514-0.012,7.378-0.037c0.875,1.239,2.062,2.716,3.56,4.431
		c1.498,1.715,2.718,3.248,3.658,4.598c2.515-2.514,4.537-4.474,6.068-5.88c1.53-1.406,2.624-2.456,3.28-3.149
		c2.782,0.025,5.454,0.037,8.017,0.037c1.357,0,3.821-0.012,7.392-0.037L273.6,208.469c-2.867,2.403-4.299,3.661-4.299,3.772
		l-0.033,0.186v0.186l-0.033,0.186l-0.229,2.825c-0.153,1.871-0.272,3.934-0.36,6.188c-3.085-0.025-5.47-0.037-7.155-0.037
		C259.762,221.775,257.355,221.788,254.27,221.813z"/>
	<path fill="#FFFFFF" d="M54.25,267.485l2.726-2.676l16.975-18.102l1.806-2.025c0.525-0.595,1.258-1.449,2.2-2.564
		c3.85,0.024,6.661,0.037,8.433,0.037c3.084,0,5.939-0.013,8.564-0.037l4.788,7.749l9.741,14.905l1.902,2.713
		c-3.79-0.024-6.089-0.037-6.899-0.037c-1.84,0-4.544,0.013-8.114,0.037c-0.961-2.044-2.348-4.447-4.161-7.211h-16.52
		c-1.902,2.181-3.869,4.584-5.902,7.211c-4.074-0.024-6.571-0.037-7.49-0.037C60.635,267.448,57.952,267.461,54.25,267.485z
		 M79.659,254.866h10.193c-2.534-4.365-3.92-6.771-4.161-7.217c-1.443,1.818-2.667,3.309-3.672,4.472L79.659,254.866z"/>
	<path fill="#FFFFFF" d="M123.667,267.485l-1.117-3.42c-0.263-0.805-0.668-1.933-1.215-3.382l-5.354-13.883l-1.938-4.683
		c2.759,0.024,4.992,0.037,6.7,0.037c1.927,0,4.16-0.013,6.7-0.037c0.591,2.02,1.062,3.5,1.412,4.441l2.759,7.489
		c0.569,1.611,1.204,3.574,1.905,5.892l1.08-2.603l3.897-8.586l2.686-6.634c2.997,0.024,5.535,0.037,7.613,0.037
		c2.253,0,4.78-0.013,7.581-0.037l2.074,7.823l2.865,9.962l1.279-2.732c0.24-0.471,0.492-0.947,0.754-1.431
		c0.262-0.483,0.809-1.443,1.64-2.881l4.001-7.136l1.869-3.605c2.645,0.012,4.831,0.019,6.558,0.019
		c1.946,0,4.121-0.007,6.526-0.019l-12.724,21.595l-2.033,3.772c-3.282-0.024-6.148-0.037-8.599-0.037
		c-2.582,0-5.437,0.013-8.566,0.037l-0.754-2.546l-2.883-8.865c-0.153-0.532-0.29-1.08-0.41-1.645
		c-0.12-0.563-0.289-1.44-0.508-2.63l-1.149,2.881c-0.285,0.645-0.581,1.295-0.887,1.951l-5.287,10.854
		c-3.304-0.024-6.05-0.037-8.238-0.037C129.586,267.448,126.84,267.461,123.667,267.485z"/>
	<path fill="#FFFFFF" d="M181.974,267.485l2.726-2.676l16.975-18.102l1.806-2.025c0.525-0.595,1.258-1.449,2.2-2.564
		c3.85,0.024,6.661,0.037,8.433,0.037c3.084,0,5.939-0.013,8.564-0.037l4.788,7.749l9.741,14.905l1.902,2.713
		c-3.79-0.024-6.089-0.037-6.899-0.037c-1.84,0-4.544,0.013-8.114,0.037c-0.961-2.044-2.348-4.447-4.161-7.211h-16.52
		c-1.902,2.181-3.869,4.584-5.902,7.211c-4.074-0.024-6.571-0.037-7.49-0.037C188.358,267.448,185.675,267.461,181.974,267.485z
		 M207.382,254.866h10.193c-2.534-4.365-3.92-6.771-4.161-7.217c-1.443,1.818-2.667,3.309-3.672,4.472L207.382,254.866z"/>
	<path fill="#FFFFFF" d="M242.522,267.485c0.418-2.316,0.715-4.237,0.891-5.761c0.33-2.701,0.682-6.399,1.056-11.095
		c0.264-3.271,0.396-5.576,0.396-6.914v-1.598c3.65,0.024,6.164,0.037,7.541,0.037c0.918,0,3.278-0.013,7.082-0.037L257.937,256
		l-0.792,11.485l-7.115-0.037C249.024,267.448,246.521,267.461,242.522,267.485z M258.963,254.096l7.351-5.664l5.94-4.717
		l1.838-1.597c4.069,0.024,6.826,0.037,8.27,0.037c0.394,0,3.008-0.013,7.843-0.037l-13.849,9.897l-2.592,1.987l2.428,2.194
		l13.718,11.288l-8.073-0.037c-1.75,0-4.715,0.013-8.893,0.037C270.121,264.473,265.461,260.009,258.963,254.096z"/>
	<path fill="#FFFFFF" d="M293.946,267.485c0.548-3.196,0.948-5.873,1.201-8.028c0.252-2.156,0.504-5.021,0.757-8.596
		c0.252-3.574,0.378-5.943,0.378-7.108l-0.033-1.635c5.162,0.024,11.407,0.037,18.735,0.037c6.759,0,12.72-0.013,17.882-0.037
		l-0.066,0.611c-0.021,0.147-0.076,0.685-0.164,1.611l-0.196,2.019c-0.044,0.433-0.065,0.871-0.065,1.315
		c-4.223-0.1-7.767-0.149-10.633-0.149c-3.15,0-5.278,0.004-6.383,0.01c-1.105,0.007-2.828,0.034-5.169,0.084l-0.398,4.274
		c2.583,0.037,5.591,0.056,9.027,0.056c1.226,0,4.486-0.044,9.782-0.131c-0.219,1.587-0.427,3.476-0.623,5.669
		c-3.783-0.025-6.691-0.037-8.724-0.037c-3.018,0-6.396,0.043-10.135,0.13l-0.39,4.516h3.771c1.115,0,3.422-0.019,6.92-0.056
		l6.789-0.093c1.005-0.013,2.689-0.062,5.051-0.148c-0.263,1.833-0.482,3.729-0.657,5.687c-5.338-0.024-11.19-0.037-17.557-0.037
		l-14.439,0.019L293.946,267.485z"/>
</g>
<path stroke="#FFFFFF" stroke-width="5" stroke-miterlimit="10" d="M477.595,163.94c24.557,0.728,27.03-30.716,5.304-35.476
	C455.793,124.15,452.55,161.626,477.595,163.94"/>
<g>
	<path fill="#FFFFFF" d="M83.034,100.029c126.362,143.935,225.966,0,225.966,0C198.99-45.487,83.034,100.029,83.034,100.029z
		 M197.144,153.105c-68.66-4.06-64.067-104.709,0-106.561C265.804,50.604,261.211,151.253,197.144,153.105z"/>
	<path fill="#FFFFFF" d="M197.579,70.187c-38.803,2.498-35.157,59.242,0,60.075C236.383,127.763,232.737,71.019,197.579,70.187z"/>
</g>
<g>
</g>
<g>
</g>
<g>
</g>
<g>
</g>
<g>
</g>
<g>
</g>
<g>
</g>
<g>
</g>
<g>
</g>
<g>
</g>
<g>
</g>
<g>
</g>
<g>
</g>
<g>
</g>
<g>
</g>
</svg>
